<?xml version="1.0" encoding="UTF-8"?>
<svg width="100" height="70" viewBox="0 0 100 70" xmlns="http://www.w3.org/2000/svg">
  <path fill="currentColor" d="M65.8,26.4c2.1-2.2,4.9-3.4,7.9-3.4c6.1,0,11.1,5,11.1,11.1c0,6.1-5,11.1-11.1,11.1c-1.1,0-2.2-0.2-3.2-0.5 c-0.8,1.5-1.8,2.8-3,4c1.9,0.9,4,1.4,6.2,1.4c8.4,0,15.2-6.8,15.2-15.2c0-8.4-6.8-15.2-15.2-15.2c-5.7,0-10.8,3.2-13.4,7.9 C62.1,27.1,64,26.6,65.8,26.4z M55.4,33.6c0.7-1.5,1.7-2.8,2.9-3.9c-1.9-0.9-4-1.4-6.2-1.4c-8.4,0-15.2,6.8-15.2,15.2 c0,8.4,6.8,15.2,15.2,15.2c5.7,0,10.8-3.2,13.4-7.9c-1.8,0.4-3.7,0.9-5.5,1.1c-2.1,2.2-4.9,3.4-7.9,3.4c-6.1,0-11.1-5-11.1-11.1 C40.9,38.6,45.9,33.6,52,33.6C53.1,33.6,54.3,33.8,55.4,33.6z M73.7,34.1c0,6.1-5,11.1-11.1,11.1c-6.1,0-11.1-5-11.1-11.1 c0-6.1,5-11.1,11.1-11.1C68.7,23,73.7,28,73.7,34.1z"/>
</svg> 